<?xml version="1.0" encoding="UTF-8"?><svg xmlns="http://www.w3.org/2000/svg" xmlns:xlink="http://www.w3.org/1999/xlink" height="300.0" preserveAspectRatio="xMidYMid meet" version="1.0" viewBox="-78.2 0.0 300.3 300.0" width="300.3" zoomAndPan="magnify"><g id="change1_1"><path d="M71.909 74.552L85.378 0 85.327 75.761 111.895 4.815 98.317 79.339 137.123 14.284 110.453 85.189 160.253 28.104 121.351 93.105 180.547 45.832 130.665 102.847 197.346 66.902 138.088 114.094 210.115 90.627 143.382 126.48 218.443 116.26 146.381 139.609 222.063 142.961 146.981 153.075 220.851 169.878 145.176 166.426 214.852 196.146 141.012 179.241 204.265 220.924 134.625 191.105 189.417 243.413 126.229 201.636 170.8 262.892 116.077 210.502 148.997 278.728 104.513 217.414 124.724 290.42 91.904 222.144 98.746 297.59 78.647 224.556 71.909 300 65.172 224.556 45.072 297.59 51.913 222.144 19.095 290.42 39.299 217.414 -5.187 278.728 27.735 210.502 -26.981 262.892 17.591 201.636 -45.603 243.413 9.189 191.105 -60.452 220.924 2.804 179.241 -71.039 196.146 -1.357 166.426 -77.034 169.878 -3.168 153.075 -78.243 142.961 -2.565 139.609 -74.626 116.26 0.433 126.48 -66.296 90.627 5.731 114.094 -53.529 66.902 13.153 102.847 -36.728 45.832 22.462 93.105 -16.439 28.104 33.361 85.189 6.698 14.284 45.502 79.339 31.924 4.815 58.486 75.761 58.437 0z" fill="#D8AF54"/></g></svg>